<svg width="431" height="315" viewBox="0 0 431 315" fill="none" xmlns="http://www.w3.org/2000/svg">
<rect x="65.5" y="0.5" width="299" height="219.939" fill="black" stroke="black"/>
<circle cx="215" cy="111.011" r="94.2654" fill="white" stroke="black"/>
<path d="M273.356 115.341L129.464 198.417C126.131 200.341 121.964 197.936 121.964 194.087L121.964 27.9349C121.964 24.0859 126.131 21.6803 129.464 23.6048L273.356 106.681C276.689 108.605 276.689 113.416 273.356 115.341Z" fill="white" stroke="black" stroke-width="4"/>
<path d="M217.788 117.181L157.56 151.954C153.227 154.456 147.81 151.328 147.81 146.325L147.81 76.7798C147.81 71.7761 153.227 68.6488 157.56 71.1507L217.788 105.923C222.121 108.425 222.121 114.679 217.788 117.181Z" fill="black" stroke="black"/>
<path d="M200.459 116.64L165.412 136.874C161.079 139.376 155.662 136.249 155.662 131.245L155.662 90.7763C155.662 85.7726 161.079 82.6453 165.412 85.1471L200.459 105.381C204.793 107.883 204.793 114.138 200.459 116.64Z" fill="white" stroke="black"/>
<circle cx="197.13" cy="37.9059" r="10.3303" fill="black" stroke="black"/>
<circle cx="239.368" cy="46.5702" r="10.3303" fill="black" stroke="black"/>
<circle cx="274.025" cy="73.646" r="10.3303" fill="black" stroke="black"/>
<circle cx="281.463" cy="140.727" r="10.3303" transform="rotate(125.254 281.463 140.727)" fill="black" stroke="black"/>
<circle cx="250.007" cy="170.217" r="10.3303" transform="rotate(125.254 250.007 170.217)" fill="black" stroke="black"/>
<circle cx="207.893" cy="182.89" r="10.3303" transform="rotate(125.254 207.893 182.89)" fill="black" stroke="black"/>
<path d="M44.864 241.92L36.8 288H25.216L17.152 262.784L12.8 288H1.216L9.344 241.92H21.248L29.184 265.472L33.344 241.92H44.864ZM77.969 288H45.841L53.969 241.92H86.097L84.305 251.904H63.697L62.225 260.544H79.249L77.457 270.528H60.433L59.153 278.016H79.761L77.969 288ZM132.509 241.92L114.461 265.152L124.381 288H111.261L104.989 273.28L94.429 288H81.309L98.269 265.152L89.437 241.92H102.557L107.869 256.896L119.389 241.92H132.509ZM175.036 251.904H159.292L152.956 288H141.372L147.708 251.904H131.9L133.692 241.92H176.828L175.036 251.904ZM205.533 288.896C199.432 288.896 195.208 287.573 192.861 284.928C191.24 283.051 190.429 280.427 190.429 277.056C190.429 275.605 190.578 274.048 190.877 272.384L193.501 257.664C195.421 246.869 202.354 241.472 214.301 241.472C219.25 241.472 223.005 242.539 225.565 244.672C228.125 246.763 229.405 249.643 229.405 253.312C229.405 255.019 229.149 256.725 228.637 258.432C228.168 260.096 227.698 261.333 227.229 262.144L226.525 263.424H215.197C216.605 261.803 217.309 259.499 217.309 256.512C217.309 254.933 216.904 253.696 216.093 252.8C215.282 251.861 214.088 251.392 212.509 251.392C208.2 251.392 205.64 253.781 204.829 258.56L202.589 271.488C202.376 272.597 202.269 273.685 202.269 274.752C202.269 277.568 203.954 278.976 207.325 278.976C211.378 278.976 213.81 276.693 214.621 272.128H226.141L225.821 273.984C224.114 283.925 217.352 288.896 205.533 288.896ZM250.427 241.92L242.363 288H230.779L238.907 241.92H250.427ZM295.052 241.92L286.988 288H275.404L267.34 262.784L262.988 288H251.404L259.532 241.92H271.436L279.372 265.472L283.532 241.92H295.052ZM328.157 288H296.029L304.157 241.92H336.285L334.493 251.904H313.885L312.413 260.544H329.437L327.645 270.528H310.621L309.341 278.016H329.949L328.157 288ZM355.689 241.92L362.537 264L377.257 241.92H389.353L381.225 288H369.641L374.249 262.016L364.393 277.504H356.009L351.657 262.016L347.049 288H335.529L343.657 241.92H355.689ZM413.125 288L413.509 277.952H402.821L399.685 288H387.461L403.909 241.92H425.029L425.285 288H413.125ZM410.501 253.12L405.445 269.376H413.829L414.533 253.12H410.501Z" fill="white"/>
<path d="M44.864 241.92L45.849 242.092L46.0542 240.92H44.864V241.92ZM36.8 288V289H37.6402L37.785 288.172L36.8 288ZM25.216 288L24.2635 288.305L24.4859 289H25.216V288ZM17.152 262.784L18.1045 262.479L16.1666 262.614L17.152 262.784ZM12.8 288V289H13.6422L13.7854 288.17L12.8 288ZM1.216 288L0.231203 287.826L0.0241738 289H1.216V288ZM9.344 241.92V240.92H8.50495L8.3592 241.746L9.344 241.92ZM21.248 241.92L22.1956 241.601L21.9663 240.92H21.248V241.92ZM29.184 265.472L28.2364 265.791L30.1688 265.646L29.184 265.472ZM33.344 241.92V240.92H32.5052L32.3592 241.746L33.344 241.92ZM43.879 241.748L35.815 287.828L37.785 288.172L45.849 242.092L43.879 241.748ZM36.8 287H25.216V289H36.8V287ZM26.1685 287.695L18.1045 262.479L16.1995 263.089L24.2635 288.305L26.1685 287.695ZM16.1666 262.614L11.8146 287.83L13.7854 288.17L18.1374 262.954L16.1666 262.614ZM12.8 287H1.216V289H12.8V287ZM2.2008 288.174L10.3288 242.094L8.3592 241.746L0.231203 287.826L2.2008 288.174ZM9.344 242.92H21.248V240.92H9.344V242.92ZM20.3004 242.239L28.2364 265.791L30.1317 265.153L22.1956 241.601L20.3004 242.239ZM30.1688 265.646L34.3288 242.094L32.3592 241.746L28.1992 265.298L30.1688 265.646ZM33.344 242.92H44.864V240.92H33.344V242.92ZM77.969 288V289H78.8055L78.9533 288.177L77.969 288ZM45.841 288L44.8562 287.826L44.6492 289H45.841V288ZM53.969 241.92V240.92H53.13L52.9842 241.746L53.969 241.92ZM86.097 241.92L87.0813 242.097L87.2925 240.92H86.097V241.92ZM84.305 251.904V252.904H85.1415L85.2893 252.081L84.305 251.904ZM63.697 251.904V250.904H62.853L62.7112 251.736L63.697 251.904ZM62.225 260.544L61.2392 260.376L61.0402 261.544H62.225V260.544ZM79.249 260.544L80.2333 260.721L80.4445 259.544H79.249V260.544ZM77.457 270.528V271.528H78.2935L78.4413 270.705L77.457 270.528ZM60.433 270.528V269.528H59.5894L59.4473 270.36L60.433 270.528ZM59.153 278.016L58.1673 277.848L57.9676 279.016H59.153V278.016ZM79.761 278.016L80.7453 278.193L80.9565 277.016H79.761V278.016ZM77.969 287H45.841V289H77.969V287ZM46.8258 288.174L54.9538 242.094L52.9842 241.746L44.8562 287.826L46.8258 288.174ZM53.969 242.92H86.097V240.92H53.969V242.92ZM85.1127 241.743L83.3207 251.727L85.2893 252.081L87.0813 242.097L85.1127 241.743ZM84.305 250.904H63.697V252.904H84.305V250.904ZM62.7112 251.736L61.2392 260.376L63.2108 260.712L64.6828 252.072L62.7112 251.736ZM62.225 261.544H79.249V259.544H62.225V261.544ZM78.2647 260.367L76.4727 270.351L78.4413 270.705L80.2333 260.721L78.2647 260.367ZM77.457 269.528H60.433V271.528H77.457V269.528ZM59.4473 270.36L58.1673 277.848L60.1387 278.184L61.4187 270.696L59.4473 270.36ZM59.153 279.016H79.761V277.016H59.153V279.016ZM78.7767 277.839L76.9847 287.823L78.9533 288.177L80.7453 278.193L78.7767 277.839ZM132.509 241.92L133.299 242.533L134.552 240.92H132.509V241.92ZM114.461 265.152L113.671 264.539L113.308 265.007L113.544 265.55L114.461 265.152ZM124.381 288V289H125.905L125.298 287.602L124.381 288ZM111.261 288L110.341 288.392L110.6 289H111.261V288ZM104.989 273.28L105.909 272.888L105.212 271.253L104.176 272.697L104.989 273.28ZM94.429 288V289H94.9423L95.2415 288.583L94.429 288ZM81.309 288L80.506 287.404L79.3213 289H81.309V288ZM98.269 265.152L99.072 265.748L99.3983 265.308L99.2037 264.797L98.269 265.152ZM89.437 241.92V240.92H87.987L88.5023 242.275L89.437 241.92ZM102.557 241.92L103.499 241.586L103.263 240.92H102.557V241.92ZM107.869 256.896L106.927 257.23L107.541 258.963L108.662 257.506L107.869 256.896ZM119.389 241.92V240.92H118.897L118.596 241.31L119.389 241.92ZM131.719 241.307L113.671 264.539L115.251 265.765L133.299 242.533L131.719 241.307ZM113.544 265.55L123.464 288.398L125.298 287.602L115.378 264.754L113.544 265.55ZM124.381 287H111.261V289H124.381V287ZM112.181 287.608L105.909 272.888L104.069 273.672L110.341 288.392L112.181 287.608ZM104.176 272.697L93.6165 287.417L95.2415 288.583L105.802 273.863L104.176 272.697ZM94.429 287H81.309V289H94.429V287ZM82.112 288.596L99.072 265.748L97.466 264.556L80.506 287.404L82.112 288.596ZM99.2037 264.797L90.3717 241.565L88.5023 242.275L97.3343 265.507L99.2037 264.797ZM89.437 242.92H102.557V240.92H89.437V242.92ZM101.615 242.254L106.927 257.23L108.811 256.562L103.499 241.586L101.615 242.254ZM108.662 257.506L120.182 242.53L118.596 241.31L107.076 256.286L108.662 257.506ZM119.389 242.92H132.509V240.92H119.389V242.92ZM175.036 251.904V252.904H175.872L176.02 252.081L175.036 251.904ZM159.292 251.904V250.904H158.452L158.307 251.731L159.292 251.904ZM152.956 288V289H153.795L153.94 288.173L152.956 288ZM141.372 288L140.387 287.827L140.181 289H141.372V288ZM147.708 251.904L148.692 252.077L148.898 250.904H147.708V251.904ZM131.9 251.904L130.915 251.727L130.704 252.904H131.9V251.904ZM133.692 241.92V240.92H132.855L132.707 241.743L133.692 241.92ZM176.828 241.92L177.812 242.097L178.023 240.92H176.828V241.92ZM175.036 250.904H159.292V252.904H175.036V250.904ZM158.307 251.731L151.971 287.827L153.94 288.173L160.276 252.077L158.307 251.731ZM152.956 287H141.372V289H152.956V287ZM142.356 288.173L148.692 252.077L146.723 251.731L140.387 287.827L142.356 288.173ZM147.708 250.904H131.9V252.904H147.708V250.904ZM132.884 252.081L134.676 242.097L132.707 241.743L130.915 251.727L132.884 252.081ZM133.692 242.92H176.828V240.92H133.692V242.92ZM175.843 241.743L174.051 251.727L176.02 252.081L177.812 242.097L175.843 241.743ZM192.861 284.928L192.104 285.582L192.113 285.592L192.861 284.928ZM190.877 272.384L191.861 272.561L191.861 272.559L190.877 272.384ZM193.501 257.664L194.485 257.839L194.486 257.839L193.501 257.664ZM225.565 244.672L224.925 245.44L224.932 245.447L225.565 244.672ZM228.637 258.432L227.679 258.145L227.677 258.153L227.675 258.161L228.637 258.432ZM227.229 262.144L226.364 261.643L226.358 261.652L226.353 261.662L227.229 262.144ZM226.525 263.424V264.424H227.116L227.401 263.906L226.525 263.424ZM215.197 263.424L214.442 262.768L213.004 264.424H215.197V263.424ZM216.093 252.8L215.336 253.454L215.344 253.462L215.351 253.471L216.093 252.8ZM204.829 258.56L205.814 258.731L205.815 258.727L204.829 258.56ZM202.589 271.488L203.571 271.677L203.573 271.668L203.574 271.659L202.589 271.488ZM214.621 272.128V271.128H213.783L213.636 271.953L214.621 272.128ZM226.141 272.128L227.126 272.298L227.328 271.128H226.141V272.128ZM225.821 273.984L224.836 273.814L224.835 273.815L225.821 273.984ZM205.533 287.896C199.521 287.896 195.666 286.583 193.609 284.264L192.113 285.592C194.749 288.564 199.342 289.896 205.533 289.896V287.896ZM193.618 284.274C192.202 282.635 191.429 280.273 191.429 277.056H189.429C189.429 280.58 190.277 283.466 192.104 285.582L193.618 284.274ZM191.429 277.056C191.429 275.673 191.571 274.176 191.861 272.561L189.893 272.207C189.585 273.92 189.429 275.537 189.429 277.056H191.429ZM191.861 272.559L194.485 257.839L192.517 257.489L189.893 272.209L191.861 272.559ZM194.486 257.839C195.413 252.622 197.529 248.821 200.755 246.309C203.993 243.789 208.471 242.472 214.301 242.472V240.472C208.184 240.472 203.223 241.854 199.527 244.731C195.82 247.616 193.509 251.911 192.516 257.489L194.486 257.839ZM214.301 242.472C219.126 242.472 222.614 243.514 224.925 245.44L226.205 243.904C223.396 241.563 219.375 240.472 214.301 240.472V242.472ZM224.932 245.447C227.232 247.325 228.405 249.905 228.405 253.312H230.405C230.405 249.38 229.018 246.201 226.198 243.897L224.932 245.447ZM228.405 253.312C228.405 254.917 228.164 256.527 227.679 258.145L229.595 258.719C230.134 256.924 230.405 255.12 230.405 253.312H228.405ZM227.675 258.161C227.212 259.8 226.77 260.941 226.364 261.643L228.094 262.645C228.627 261.725 229.123 260.392 229.599 258.703L227.675 258.161ZM226.353 261.662L225.649 262.942L227.401 263.906L228.105 262.626L226.353 261.662ZM226.525 262.424H215.197V264.424H226.525V262.424ZM215.952 264.08C217.57 262.216 218.309 259.646 218.309 256.512H216.309C216.309 259.352 215.64 261.389 214.442 262.768L215.952 264.08ZM218.309 256.512C218.309 254.763 217.857 253.26 216.835 252.129L215.351 253.471C215.95 254.132 216.309 255.103 216.309 256.512H218.309ZM216.85 252.146C215.8 250.931 214.293 250.392 212.509 250.392V252.392C213.882 252.392 214.765 252.792 215.336 253.454L216.85 252.146ZM212.509 250.392C210.162 250.392 208.18 251.048 206.675 252.453C205.183 253.845 204.271 255.869 203.843 258.393L205.815 258.727C206.197 256.473 206.971 254.912 208.039 253.915C209.094 252.931 210.546 252.392 212.509 252.392V250.392ZM203.844 258.389L201.604 271.317L203.574 271.659L205.814 258.731L203.844 258.389ZM201.607 271.299C201.382 272.467 201.269 273.618 201.269 274.752H203.269C203.269 273.752 203.369 272.728 203.571 271.677L201.607 271.299ZM201.269 274.752C201.269 276.366 201.761 277.742 202.892 278.687C203.989 279.604 205.525 279.976 207.325 279.976V277.976C205.754 277.976 204.763 277.644 204.174 277.153C203.62 276.69 203.269 275.954 203.269 274.752H201.269ZM207.325 279.976C209.548 279.976 211.434 279.344 212.873 277.993C214.298 276.656 215.177 274.717 215.606 272.303L213.636 271.953C213.254 274.105 212.512 275.589 211.505 276.535C210.512 277.466 209.155 277.976 207.325 277.976V279.976ZM214.621 273.128H226.141V271.128H214.621V273.128ZM225.156 271.958L224.836 273.814L226.806 274.154L227.126 272.298L225.156 271.958ZM224.835 273.815C224.016 278.585 222.009 282.06 218.877 284.362C215.725 286.679 211.314 287.896 205.533 287.896V289.896C211.571 289.896 216.451 288.627 220.061 285.974C223.692 283.305 225.919 279.324 226.807 274.153L224.835 273.815ZM250.427 241.92L251.412 242.092L251.617 240.92H250.427V241.92ZM242.363 288V289H243.203L243.348 288.172L242.363 288ZM230.779 288L229.794 287.826L229.587 289H230.779V288ZM238.907 241.92V240.92H238.067L237.922 241.746L238.907 241.92ZM249.441 241.748L241.377 287.828L243.348 288.172L251.412 242.092L249.441 241.748ZM242.363 287H230.779V289H242.363V287ZM231.763 288.174L239.891 242.094L237.922 241.746L229.794 287.826L231.763 288.174ZM238.907 242.92H250.427V240.92H238.907V242.92ZM295.052 241.92L296.037 242.092L296.242 240.92H295.052V241.92ZM286.988 288V289H287.828L287.973 288.172L286.988 288ZM275.404 288L274.451 288.305L274.673 289H275.404V288ZM267.34 262.784L268.292 262.479L266.354 262.614L267.34 262.784ZM262.988 288V289H263.83L263.973 288.17L262.988 288ZM251.404 288L250.419 287.826L250.212 289H251.404V288ZM259.532 241.92V240.92H258.692L258.547 241.746L259.532 241.92ZM271.436 241.92L272.383 241.601L272.154 240.92H271.436V241.92ZM279.372 265.472L278.424 265.791L280.356 265.646L279.372 265.472ZM283.532 241.92V240.92H282.693L282.547 241.746L283.532 241.92ZM294.066 241.748L286.002 287.828L287.973 288.172L296.037 242.092L294.066 241.748ZM286.988 287H275.404V289H286.988V287ZM276.356 287.695L268.292 262.479L266.387 263.089L274.451 288.305L276.356 287.695ZM266.354 262.614L262.002 287.83L263.973 288.17L268.325 262.954L266.354 262.614ZM262.988 287H251.404V289H262.988V287ZM252.388 288.174L260.516 242.094L258.547 241.746L250.419 287.826L252.388 288.174ZM259.532 242.92H271.436V240.92H259.532V242.92ZM270.488 242.239L278.424 265.791L280.319 265.153L272.383 241.601L270.488 242.239ZM280.356 265.646L284.516 242.094L282.547 241.746L278.387 265.298L280.356 265.646ZM283.532 242.92H295.052V240.92H283.532V242.92ZM328.157 288V289H328.993L329.141 288.177L328.157 288ZM296.029 288L295.044 287.826L294.837 289H296.029V288ZM304.157 241.92V240.92H303.317L303.172 241.746L304.157 241.92ZM336.285 241.92L337.269 242.097L337.48 240.92H336.285V241.92ZM334.493 251.904V252.904H335.329L335.477 252.081L334.493 251.904ZM313.885 251.904V250.904H313.04L312.899 251.736L313.885 251.904ZM312.413 260.544L311.427 260.376L311.228 261.544H312.413V260.544ZM329.437 260.544L330.421 260.721L330.632 259.544H329.437V260.544ZM327.645 270.528V271.528H328.481L328.629 270.705L327.645 270.528ZM310.621 270.528V269.528H309.777L309.635 270.36L310.621 270.528ZM309.341 278.016L308.355 277.848L308.155 279.016H309.341V278.016ZM329.949 278.016L330.933 278.193L331.144 277.016H329.949V278.016ZM328.157 287H296.029V289H328.157V287ZM297.013 288.174L305.141 242.094L303.172 241.746L295.044 287.826L297.013 288.174ZM304.157 242.92H336.285V240.92H304.157V242.92ZM335.3 241.743L333.508 251.727L335.477 252.081L337.269 242.097L335.3 241.743ZM334.493 250.904H313.885V252.904H334.493V250.904ZM312.899 251.736L311.427 260.376L313.398 260.712L314.87 252.072L312.899 251.736ZM312.413 261.544H329.437V259.544H312.413V261.544ZM328.452 260.367L326.66 270.351L328.629 270.705L330.421 260.721L328.452 260.367ZM327.645 269.528H310.621V271.528H327.645V269.528ZM309.635 270.36L308.355 277.848L310.326 278.184L311.606 270.696L309.635 270.36ZM309.341 279.016H329.949V277.016H309.341V279.016ZM328.964 277.839L327.172 287.823L329.141 288.177L330.933 278.193L328.964 277.839ZM355.689 241.92L356.644 241.624L356.425 240.92H355.689V241.92ZM362.537 264L361.581 264.296L362.204 266.302L363.369 264.555L362.537 264ZM377.257 241.92V240.92H376.721L376.424 241.365L377.257 241.92ZM389.353 241.92L390.337 242.094L390.544 240.92H389.353V241.92ZM381.225 288V289H382.064L382.209 288.174L381.225 288ZM369.641 288L368.656 287.825L368.448 289H369.641V288ZM374.249 262.016L375.233 262.191L373.405 261.479L374.249 262.016ZM364.393 277.504V278.504H364.941L365.236 278.041L364.393 277.504ZM356.009 277.504L355.046 277.775L355.251 278.504H356.009V277.504ZM351.657 262.016L352.619 261.745L350.672 261.841L351.657 262.016ZM347.049 288V289H347.887L348.033 288.175L347.049 288ZM335.529 288L334.544 287.826L334.337 289H335.529V288ZM343.657 241.92V240.92H342.817L342.672 241.746L343.657 241.92ZM354.733 242.216L361.581 264.296L363.492 263.704L356.644 241.624L354.733 242.216ZM363.369 264.555L378.089 242.475L376.424 241.365L361.704 263.445L363.369 264.555ZM377.257 242.92H389.353V240.92H377.257V242.92ZM388.368 241.746L380.24 287.826L382.209 288.174L390.337 242.094L388.368 241.746ZM381.225 287H369.641V289H381.225V287ZM370.625 288.175L375.233 262.191L373.264 261.841L368.656 287.825L370.625 288.175ZM373.405 261.479L363.549 276.967L365.236 278.041L375.092 262.553L373.405 261.479ZM364.393 276.504H356.009V278.504H364.393V276.504ZM356.971 277.233L352.619 261.745L350.694 262.287L355.046 277.775L356.971 277.233ZM350.672 261.841L346.064 287.825L348.033 288.175L352.641 262.191L350.672 261.841ZM347.049 287H335.529V289H347.049V287ZM336.513 288.174L344.641 242.094L342.672 241.746L334.544 287.826L336.513 288.174ZM343.657 242.92H355.689V240.92H343.657V242.92ZM413.125 288L412.126 287.962L412.086 289H413.125V288ZM413.509 277.952L414.508 277.99L414.548 276.952H413.509V277.952ZM402.821 277.952V276.952H402.086L401.866 277.654L402.821 277.952ZM399.685 288V289H400.42L400.64 288.298L399.685 288ZM387.461 288L386.519 287.664L386.042 289H387.461V288ZM403.909 241.92V240.92H403.204L402.967 241.584L403.909 241.92ZM425.029 241.92L426.029 241.914L426.023 240.92H425.029V241.92ZM425.285 288V289H426.291L426.285 287.994L425.285 288ZM410.501 253.12V252.12H409.765L409.546 252.823L410.501 253.12ZM405.445 269.376L404.49 269.079L404.087 270.376H405.445V269.376ZM413.829 269.376V270.376H414.787L414.828 269.419L413.829 269.376ZM414.533 253.12L415.532 253.163L415.577 252.12H414.533V253.12ZM414.124 288.038L414.508 277.99L412.51 277.914L412.126 287.962L414.124 288.038ZM413.509 276.952H402.821V278.952H413.509V276.952ZM401.866 277.654L398.73 287.702L400.64 288.298L403.776 278.25L401.866 277.654ZM399.685 287H387.461V289H399.685V287ZM388.403 288.336L404.851 242.256L402.967 241.584L386.519 287.664L388.403 288.336ZM403.909 242.92H425.029V240.92H403.909V242.92ZM424.029 241.926L424.285 288.006L426.285 287.994L426.029 241.914L424.029 241.926ZM425.285 287H413.125V289H425.285V287ZM409.546 252.823L404.49 269.079L406.4 269.673L411.456 253.417L409.546 252.823ZM405.445 270.376H413.829V268.376H405.445V270.376ZM414.828 269.419L415.532 253.163L413.534 253.077L412.83 269.333L414.828 269.419ZM414.533 252.12H410.501V254.12H414.533V252.12Z" fill="white"/>
</svg>
